<svg width="960" height="1200" viewBox="0 0 960 1200" fill="none" xmlns="http://www.w3.org/2000/svg">
  <rect width="960" height="1200" fill="#F4F1EB"/>
  <rect x="84" y="106" width="792" height="988" rx="30" fill="#FBFAF7" stroke="#D6D0C6" stroke-width="4"/>
  <rect x="132" y="154" width="696" height="96" rx="20" fill="#151515"/>
  <circle cx="182" cy="202" r="12" fill="#D93A2F"/>
  <circle cx="222" cy="202" r="12" fill="#D1AD22"/>
  <circle cx="262" cy="202" r="12" fill="#23945D"/>
  <rect x="310" y="184" width="240" height="34" rx="10" fill="#2C2C2C"/>
  <rect x="150" y="308" width="188" height="118" rx="20" fill="#F1EEE7" stroke="#DED7CC" stroke-width="3"/>
  <rect x="152" y="460" width="188" height="118" rx="20" fill="#F1EEE7" stroke="#DED7CC" stroke-width="3"/>
  <rect x="152" y="612" width="188" height="118" rx="20" fill="#F1EEE7" stroke="#DED7CC" stroke-width="3"/>
  <rect x="152" y="764" width="188" height="118" rx="20" fill="#F1EEE7" stroke="#DED7CC" stroke-width="3"/>
  <rect x="378" y="308" width="420" height="574" rx="24" fill="#F8F6F1" stroke="#DED7CC" stroke-width="3"/>
  <text x="150" y="357" fill="#5B5B57" font-family="Avenir Next, Helvetica, Arial, sans-serif" font-size="30" font-weight="600" letter-spacing="2">COMMITS</text>
  <text x="150" y="395" fill="#151515" font-family="Iowan Old Style, Georgia, serif" font-size="62">742</text>
  <text x="150" y="509" fill="#5B5B57" font-family="Avenir Next, Helvetica, Arial, sans-serif" font-size="30" font-weight="600" letter-spacing="2">PRS OPENED</text>
  <text x="150" y="547" fill="#151515" font-family="Iowan Old Style, Georgia, serif" font-size="62">38</text>
  <text x="150" y="661" fill="#5B5B57" font-family="Avenir Next, Helvetica, Arial, sans-serif" font-size="30" font-weight="600" letter-spacing="2">MERGED</text>
  <text x="150" y="699" fill="#151515" font-family="Iowan Old Style, Georgia, serif" font-size="62">31</text>
  <text x="150" y="813" fill="#5B5B57" font-family="Avenir Next, Helvetica, Arial, sans-serif" font-size="30" font-weight="600" letter-spacing="2">STREAK</text>
  <text x="150" y="851" fill="#151515" font-family="Iowan Old Style, Georgia, serif" font-size="62">19 days</text>
  <text x="410" y="360" fill="#151515" font-family="Iowan Old Style, Georgia, serif" font-size="48">Repository activity</text>
  <text x="410" y="404" fill="#5B5B57" font-family="Avenir Next, Helvetica, Arial, sans-serif" font-size="26">A cheerful snapshot of steady experiments, shipped fixes, and half-tidy builds.</text>
  <rect x="410" y="454" width="356" height="14" rx="7" fill="#E8E2D8"/>
  <rect x="410" y="454" width="254" height="14" rx="7" fill="#2764FF"/>
  <text x="410" y="505" fill="#5B5B57" font-family="Avenir Next, Helvetica, Arial, sans-serif" font-size="24" letter-spacing="1.8">LAST 12 WEEKS</text>
  <g transform="translate(410 540)">
    <rect width="38" height="38" rx="10" fill="#E7E2D8"/>
    <rect x="50" width="38" height="38" rx="10" fill="#DCEFE5"/>
    <rect x="100" width="38" height="38" rx="10" fill="#C1E3D0"/>
    <rect x="150" width="38" height="38" rx="10" fill="#8ECEAB"/>
    <rect x="200" width="38" height="38" rx="10" fill="#54B97F"/>
    <rect x="250" width="38" height="38" rx="10" fill="#E7E2D8"/>
    <rect x="300" width="38" height="38" rx="10" fill="#DCEFE5"/>
    <rect y="50" width="38" height="38" rx="10" fill="#DCEFE5"/>
    <rect x="50" y="50" width="38" height="38" rx="10" fill="#C1E3D0"/>
    <rect x="100" y="50" width="38" height="38" rx="10" fill="#54B97F"/>
    <rect x="150" y="50" width="38" height="38" rx="10" fill="#2F9A63"/>
    <rect x="200" y="50" width="38" height="38" rx="10" fill="#8ECEAB"/>
    <rect x="250" y="50" width="38" height="38" rx="10" fill="#DCEFE5"/>
    <rect x="300" y="50" width="38" height="38" rx="10" fill="#E7E2D8"/>
    <rect y="100" width="38" height="38" rx="10" fill="#C1E3D0"/>
    <rect x="50" y="100" width="38" height="38" rx="10" fill="#54B97F"/>
    <rect x="100" y="100" width="38" height="38" rx="10" fill="#2F9A63"/>
    <rect x="150" y="100" width="38" height="38" rx="10" fill="#177948"/>
    <rect x="200" y="100" width="38" height="38" rx="10" fill="#54B97F"/>
    <rect x="250" y="100" width="38" height="38" rx="10" fill="#C1E3D0"/>
    <rect x="300" y="100" width="38" height="38" rx="10" fill="#DCEFE5"/>
    <rect y="150" width="38" height="38" rx="10" fill="#E7E2D8"/>
    <rect x="50" y="150" width="38" height="38" rx="10" fill="#DCEFE5"/>
    <rect x="100" y="150" width="38" height="38" rx="10" fill="#8ECEAB"/>
    <rect x="150" y="150" width="38" height="38" rx="10" fill="#54B97F"/>
    <rect x="200" y="150" width="38" height="38" rx="10" fill="#2F9A63"/>
    <rect x="250" y="150" width="38" height="38" rx="10" fill="#177948"/>
    <rect x="300" y="150" width="38" height="38" rx="10" fill="#54B97F"/>
  </g>
  <text x="410" y="810" fill="#5B5B57" font-family="Avenir Next, Helvetica, Arial, sans-serif" font-size="24">Mostly useful. Occasionally chaotic. Generally shipped.</text>
</svg>
